<svg width="1593" height="1392" viewBox="0 0 1593 1392" fill="none" xmlns="http://www.w3.org/2000/svg">
<path fill-rule="evenodd" clip-rule="evenodd" d="M1364.55 727.412L1367.37 734.65L1370.8 741.98L1374.84 749.429L1379.49 757.022L1384.75 764.786L1390.59 772.747L1397 780.927L1403.94 789.35L1411.37 798.036L1419.26 807.003L1427.56 816.266L1436.22 825.837L1445.17 835.725L1454.36 845.936L1463.71 856.471L1473.18 867.328L1482.68 878.504L1492.15 889.988L1501.52 901.771L1510.75 913.839L1519.76 926.177L1528.51 938.764L1536.92 951.579L1544.95 964.597L1552.53 977.788L1559.6 991.123L1566.12 1004.57L1572.04 1018.09L1577.3 1031.64L1581.86 1045.19L1585.69 1058.71L1588.75 1072.13L1591 1085.44L1592.42 1098.57L1593 1111.5L1592.72 1124.18L1591.56 1136.58L1589.53 1148.65L1586.64 1160.36L1582.88 1171.68L1578.27 1182.59L1572.84 1193.04L1566.61 1203.03L1559.61 1212.52L1551.88 1221.51L1543.44 1229.99L1534.35 1237.94L1524.66 1245.37L1514.4 1252.28L1503.63 1258.67L1492.41 1264.55L1480.79 1269.94L1468.82 1274.86L1456.57 1279.33L1444.07 1283.37L1431.39 1287.02L1418.58 1290.31L1405.68 1293.26L1392.75 1295.92L1379.84 1298.32L1366.97 1300.49L1354.19 1302.49L1341.54 1304.34L1329.04 1306.09L1316.72 1307.77L1304.61 1309.41L1292.71 1311.05L1281.04 1312.72L1269.61 1314.44L1258.43 1316.25L1247.49 1318.15L1236.79 1320.17L1226.33 1322.33L1216.1 1324.62L1206.07 1327.06L1196.25 1329.65L1186.6 1332.37L1177.12 1335.24L1167.78 1338.22L1158.57 1341.32L1149.45 1344.51L1140.42 1347.77L1131.45 1351.08L1122.52 1354.41L1113.61 1357.75L1104.71 1361.05L1095.81 1364.3L1086.88 1367.46L1077.92 1370.52L1068.92 1373.44L1059.87 1376.21L1050.77 1378.79L1041.62 1381.18L1032.42 1383.36L1023.16 1385.31L1013.86 1387.02L1004.51 1388.49L995.122 1389.71L985.701 1390.67L976.254 1391.37L966.788 1391.81L957.311 1392L947.829 1391.93L938.351 1391.6L928.882 1391.01L919.431 1390.16L910.006 1389.06L900.613 1387.71L891.259 1386.12L881.953 1384.28L872.701 1382.21L863.51 1379.91L854.386 1377.4L845.335 1374.68L836.364 1371.77L827.476 1368.67L818.677 1365.4L809.971 1361.98L801.359 1358.41L792.846 1354.72L784.431 1350.92L776.117 1347.03L767.902 1343.06L759.786 1339.04L751.766 1334.97L743.841 1330.87L736.007 1326.76L728.258 1322.66L720.591 1318.58L713 1314.54L705.479 1310.54L698.019 1306.6L690.615 1302.74L683.258 1298.96L675.941 1295.27L668.653 1291.68L661.388 1288.2L654.135 1284.84L646.885 1281.61L639.629 1278.49L632.359 1275.51L625.064 1272.66L617.735 1269.94L610.364 1267.35L602.94 1264.9L595.457 1262.59L587.904 1260.4L580.274 1258.34L572.559 1256.4L564.75 1254.59L556.842 1252.88L548.826 1251.29L540.697 1249.8L532.449 1248.4L524.076 1247.1L515.575 1245.86L506.941 1244.7L498.172 1243.6L489.267 1242.54L480.223 1241.51L471.043 1240.51L461.727 1239.51L452.279 1238.5L442.703 1237.46L433.007 1236.39L423.198 1235.25L413.285 1234.04L403.281 1232.73L393.199 1231.3L383.053 1229.73L372.862 1228.01L362.641 1226.11L352.412 1224.02L342.193 1221.71L332.006 1219.18L321.869 1216.4L311.802 1213.37L301.824 1210.08L291.954 1206.52L282.212 1202.68L272.615 1198.55L263.178 1194.14L253.917 1189.44L244.842 1184.46L235.963 1179.2L227.286 1173.67L218.817 1167.88L210.559 1161.83L202.511 1155.54L194.671 1149.02L187.037 1142.28L179.603 1135.34L172.362 1128.2L165.305 1120.89L158.423 1113.41L151.707 1105.79L145.145 1098.02L138.726 1090.12L132.441 1082.1L126.277 1073.97L120.225 1065.74L114.275 1057.42L108.42 1049L102.652 1040.5L96.9658 1031.92L91.3572 1023.26L85.8242 1014.52L80.3663 1005.7L74.9853 996.809L69.6845 987.835L64.4697 978.782L59.3484 969.646L54.3301 960.426L49.4261 951.12L44.6494 941.726L40.0147 932.242L35.538 922.667L31.2365 913L27.1287 903.241L23.2337 893.39L19.571 883.449L16.1608 873.42L13.0231 863.307L10.1781 853.113L7.64516 842.844L5.44344 832.506L3.59109 822.107L2.10528 811.656L1.002 801.16L0.295855 790.631L0 780.079L0.125976 769.517L0.683648 758.956L1.68115 748.409L3.12484 737.89L5.01932 727.412L7.36742 716.989L10.1703 706.635L13.4273 696.364L17.1364 686.191L21.2939 676.128L25.8947 666.191L30.9322 656.391L36.3987 646.743L42.2851 637.26L48.5809 627.952L55.2746 618.832L62.3532 609.911L69.8021 601.198L77.6053 592.705L85.7446 584.438L94.1996 576.405L102.947 568.611L111.962 561.062L121.212 553.757L130.665 546.696L140.279 539.876L150.01 533.289L159.806 526.922L169.609 520.759L179.355 514.779L188.982 508.955L198.425 503.259L207.623 497.659L216.514 492.119L225.044 486.601L233.161 481.068L240.82 475.48L247.982 469.796L254.615 463.976L260.694 457.982L266.2 451.776L271.122 445.322L275.458 438.587L279.211 431.541L282.391 424.155L285.016 416.407L287.109 408.277L288.7 399.749L289.823 390.813L290.518 381.461L290.828 371.693L290.802 361.512L290.49 350.924L289.945 339.944L289.223 328.588L288.38 316.878L287.473 304.839L286.56 292.504L285.698 279.905L284.944 267.08L284.351 254.071L283.973 240.921L283.86 227.677L284.06 214.387L284.617 201.101L285.572 187.871L286.961 174.748L288.819 161.787L291.173 149.038L294.048 136.553L297.463 124.384L301.434 112.58L305.97 101.187L311.078 90.2506L316.759 79.8133L323.009 69.9139L329.82 60.588L337.181 51.8673L345.076 43.7798L353.484 36.3489L362.385 29.5935L371.75 23.5281L381.553 18.1623L391.76 13.5009L402.34 9.54406L413.257 6.28695L424.476 3.72015L435.958 1.82967L447.667 0.597137L459.564 0L471.613 0.0118269L483.777 0.602593L496.021 1.73902L508.308 3.38497L520.608 5.5018L532.888 8.04883L545.121 10.9837L557.278 14.2631L569.337 17.8425L581.276 21.6775L593.076 25.7236L604.721 29.9368L616.197 34.2737L627.493 38.6921L638.602 43.1507L649.518 47.6098L660.238 52.0315L670.76 56.3791L681.086 60.6175L691.22 64.713L701.166 68.6328L710.931 72.3457L720.525 75.8219L729.956 79.0332L739.239 81.9533L748.385 84.5578L757.409 86.8245L766.329 88.734L775.159 90.2693L783.92 91.4165L792.629 92.1649L801.306 92.5071L809.971 92.4391L818.643 91.9609L827.342 91.0757L836.088 89.791L844.899 88.1178L853.795 86.0711L862.791 83.6695L871.904 80.9354L881.147 77.8945L890.535 74.5759L900.077 71.012L909.782 67.2377L919.658 63.2907L929.707 59.211L939.933 55.0405L950.334 50.8225L960.907 46.6019L971.647 42.424L982.545 38.3349L993.59 34.3804L1004.77 30.6062L1016.07 27.0571L1027.47 23.7769L1038.95 20.8077L1050.49 18.1898L1062.06 15.9614L1073.65 14.1577L1085.22 12.8117L1096.75 11.9527L1108.21 11.607L1119.57 11.7971L1130.81 12.5418L1141.89 13.8561L1152.79 15.7508L1163.48 18.2327L1173.94 21.3044L1184.15 24.9645L1194.07 29.2074L1203.7 34.0234L1213.01 39.399L1221.99 45.3168L1230.62 51.7561L1238.89 58.6925L1246.81 66.0987L1254.35 73.9444L1261.53 82.1969L1268.35 90.8214L1274.81 99.7812L1280.92 109.038L1286.7 118.553L1292.16 128.288L1297.32 138.201L1302.19 148.255L1306.81 158.412L1311.19 168.636L1315.36 178.892L1319.35 189.149L1323.18 199.379L1326.88 209.559L1330.47 219.669L1333.96 229.695L1337.37 239.627L1340.71 249.458L1344 259.183L1347.25 268.798L1350.47 278.303L1353.66 287.697L1356.84 296.984L1359.99 306.169L1363.13 315.258L1366.24 324.259L1369.33 333.182L1372.39 342.038L1375.41 350.838L1378.36 359.593L1381.25 368.315L1384.05 377.018L1386.74 385.71L1389.31 394.404L1391.73 403.11L1393.99 411.834L1396.07 420.586L1397.95 429.369L1399.6 438.19L1401.01 447.049L1402.17 455.948L1403.06 464.885L1403.67 473.857L1403.98 482.861L1404.01 491.889L1403.73 500.935L1403.15 509.989L1402.28 519.042L1401.13 528.084L1399.69 537.101L1398 546.083L1396.06 555.017L1393.91 563.891L1391.56 572.693L1389.04 581.412L1386.4 590.037L1383.66 598.559L1380.86 606.97L1378.05 615.264L1375.27 623.435L1372.56 631.48L1369.96 639.399L1367.54 647.193L1365.33 654.865L1363.38 662.423L1361.74 669.873L1360.45 677.228L1359.56 684.5L1359.1 691.705L1359.12 698.86L1359.64 705.987L1360.71 713.105L1362.34 720.238L1364.55 727.412Z" fill="url(#paint0_linear_1_13)"/>
<defs>
<linearGradient id="paint0_linear_1_13" x1="-349.5" y1="534.5" x2="824.679" y2="1189.41" gradientUnits="userSpaceOnUse">
<stop stop-color="#83BAE2"/>
<stop offset="1" stop-color="#3C668C"/>
</linearGradient>
</defs>
</svg>
